<?xml version="1.0" standalone="no"?>
<!DOCTYPE svg PUBLIC "-//W3C//DTD SVG 20010904//EN"
 "http://www.w3.org/TR/2001/REC-SVG-20010904/DTD/svg10.dtd">
<svg version="1.0" xmlns="http://www.w3.org/2000/svg"
 width="1486.000000pt" height="572.000000pt" viewBox="0 0 1486.000000 572.000000"
 preserveAspectRatio="xMidYMid meet">

<g transform="translate(0.000000,572.000000) scale(0.100000,-0.100000)"
fill="#000000" stroke="none">
<path d="M3475 5642 c-38 -15 -117 -55 -175 -89 -58 -33 -139 -80 -180 -103
-121 -69 -150 -92 -171 -131 -49 -97 -16 -194 177 -524 110 -188 124 -234 105
-346 -29 -175 -151 -392 -337 -601 l-56 -63 58 -53 c84 -76 208 -172 289 -224
195 -125 307 -292 350 -523 14 -77 15 -78 9 -18 -7 92 -27 152 -104 313 -214
449 -263 879 -130 1129 56 104 110 145 400 305 146 80 275 157 287 171 12 14
28 44 35 66 24 83 -15 187 -174 458 -150 256 -148 254 -248 258 -53 3 -78 -2
-135 -25z"/>
<path d="M862 4989 c-58 -14 -104 -62 -128 -135 -17 -53 -19 -88 -18 -339 1
-311 5 -336 59 -384 67 -59 108 -65 435 -65 l295 -1 60 -29 c75 -37 185 -144
250 -245 60 -92 155 -293 186 -390 13 -40 30 -76 37 -79 22 -8 238 77 382 151
161 82 246 106 384 108 l101 2 -125 8 c-522 33 -959 227 -1085 483 -49 97 -55
151 -55 497 0 346 1 341 -105 394 l-60 30 -285 2 c-162 1 -304 -3 -328 -8z"/>
<path d="M4742 3670 c-153 -28 -276 -93 -388 -204 -137 -137 -194 -287 -194
-514 0 -220 57 -370 194 -508 135 -136 292 -198 501 -197 78 1 132 7 188 22
196 52 360 190 432 364 l15 37 -87 0 -88 0 -25 -46 c-54 -103 -144 -178 -250
-207 -296 -84 -568 52 -667 333 -35 100 -43 254 -19 364 68 303 345 474 654
401 34 -8 81 -24 104 -36 61 -31 142 -112 175 -175 l28 -54 88 0 c49 0 87 4
87 10 0 26 -46 121 -85 175 -71 100 -195 182 -330 220 -71 19 -259 28 -333 15z"/>
<path d="M6360 3674 c-87 -11 -182 -39 -270 -82 -172 -84 -296 -237 -347 -432
-24 -90 -24 -301 0 -390 57 -210 174 -354 362 -445 113 -55 205 -75 338 -75
344 0 620 211 692 530 23 101 23 282 1 375 -75 303 -326 501 -656 519 -47 2
-101 2 -120 0z m205 -159 c199 -51 343 -196 390 -396 32 -137 13 -324 -45
-443 -156 -316 -587 -381 -841 -127 -108 108 -159 239 -161 411 -1 119 15 195
58 287 101 212 362 328 599 268z"/>
<path d="M12692 3669 c-214 -36 -406 -170 -501 -348 -61 -117 -82 -210 -82
-371 0 -217 60 -371 195 -505 139 -139 286 -197 496 -197 85 0 135 5 193 21
197 52 360 190 432 364 l15 37 -87 0 -88 0 -24 -45 c-82 -154 -216 -228 -416
-229 -322 -1 -535 228 -535 573 0 169 49 300 152 407 70 73 167 127 257 144
120 22 273 5 363 -41 61 -31 142 -112 175 -175 l28 -54 88 0 c67 0 87 3 87 14
0 7 -19 51 -41 96 -57 113 -132 186 -252 245 -140 68 -297 90 -455 64z"/>
<path d="M8591 3653 l-43 -4 4 -574 c2 -316 0 -571 -4 -567 -4 4 -195 261
-426 572 l-418 565 -107 3 -107 3 -2 -438 c-5 -776 -4 -875 13 -908 15 -33 52
-42 116 -30 l33 6 2 590 3 590 64 -93 c90 -130 361 -504 595 -820 l198 -268
97 0 98 0 6 137 c11 216 8 1154 -3 1192 -11 39 -25 51 -55 49 -11 -1 -40 -3
-64 -5z"/>
<path d="M10254 3653 l-41 -4 -7 -225 c-4 -124 -4 -382 0 -574 4 -193 5 -350
3 -350 -2 0 -196 259 -429 575 l-425 574 -108 1 -108 0 3 -673 c3 -554 5 -677
17 -690 14 -18 64 -22 121 -11 l32 7 -6 591 c-6 588 -6 591 13 566 11 -14 95
-131 187 -260 92 -129 244 -338 337 -465 94 -126 204 -276 245 -332 l76 -103
103 0 103 0 3 483 c3 610 1 786 -7 831 -8 41 -30 67 -54 64 -9 -1 -35 -3 -58
-5z"/>
<path d="M14048 3653 l-438 -3 -1 -53 c-2 -65 0 -80 12 -92 6 -6 104 -9 265
-7 l254 3 0 -610 0 -611 90 0 90 0 0 610 0 610 259 0 c291 0 271 -6 271 81 0
44 -3 51 -27 60 -35 13 -246 16 -775 12z"/>
<path d="M10800 2965 l0 -685 532 2 532 3 15 58 c12 46 12 60 2 70 -9 9 -114
12 -462 10 l-449 -2 0 250 0 249 414 0 414 0 7 61 c5 38 3 65 -3 71 -23 23
-114 27 -464 21 l-368 -6 0 216 0 217 440 0 440 0 0 64 c0 63 -1 64 -31 75
-22 7 -193 11 -525 11 l-494 0 0 -685z"/>
<path d="M2978 3560 c143 -38 238 -94 350 -208 42 -42 66 -63 54 -45 -12 17
-54 61 -94 98 -76 70 -207 142 -300 164 -79 19 -88 11 -10 -9z"/>
<path d="M2630 3539 c-204 -53 -335 -157 -464 -366 -125 -203 -330 -430 -492
-545 -99 -71 -219 -131 -300 -152 -85 -22 -211 -21 -277 2 -28 11 -155 79
-282 152 -266 154 -298 169 -344 170 -51 0 -116 -35 -161 -88 -58 -69 -285
-479 -298 -541 -24 -109 41 -185 265 -305 71 -38 177 -96 236 -129 102 -56
111 -59 162 -55 110 9 175 83 334 383 135 253 175 291 361 342 95 26 422 24
572 -3 96 -18 108 -18 113 -4 15 49 36 235 41 365 7 193 24 277 82 395 38 79
60 109 131 180 116 115 229 173 396 205 47 9 58 13 35 14 -19 0 -69 -9 -110
-20z"/>
<path d="M2700 3384 c-267 -57 -431 -277 -417 -559 6 -122 33 -204 100 -297
102 -143 253 -218 442 -218 201 0 349 79 460 246 67 101 89 173 88 290 -3 180
-50 302 -159 404 -132 123 -328 175 -514 134z"/>
<path d="M2131 2974 c0 -11 3 -14 6 -6 3 7 2 16 -1 19 -3 4 -6 -2 -5 -13z"/>
<path d="M2124 2810 c3 -160 22 -220 116 -385 162 -281 252 -578 254 -835 1
-148 -13 -221 -61 -320 -44 -89 -109 -143 -368 -304 -132 -82 -251 -158 -263
-170 -69 -61 -70 -165 -3 -297 59 -116 269 -427 310 -458 29 -22 45 -26 101
-26 60 0 77 5 161 47 133 67 438 275 467 318 20 30 23 45 20 105 -4 94 -43
173 -192 393 -65 95 -125 194 -133 219 -22 65 -13 216 20 308 49 139 161 333
271 468 26 32 45 65 42 72 -8 21 -187 156 -279 210 -163 96 -208 128 -266 191
-120 128 -178 273 -191 474 l-8 125 2 -135z"/>
<path d="M3521 2804 c0 -11 3 -14 6 -6 3 7 2 16 -1 19 -3 4 -6 -2 -5 -13z"/>
<path d="M3541 2686 c-14 -57 -41 -132 -62 -172 -53 -102 -129 -338 -129 -405
0 -11 21 -20 78 -33 378 -89 624 -281 661 -516 5 -36 15 -180 21 -320 12 -286
14 -302 42 -348 51 -84 158 -100 510 -74 288 22 306 27 346 99 32 59 42 163
32 323 -5 74 -13 188 -16 254 -6 90 -12 128 -28 160 -43 85 -154 112 -392 96
-345 -24 -364 -24 -427 0 -235 89 -491 498 -591 940 l-21 96 -24 -100z"/>
<path d="M3512 2730 c0 -14 2 -19 5 -12 2 6 2 18 0 25 -3 6 -5 1 -5 -13z"/>
<path d="M3501 2684 c0 -11 3 -14 6 -6 3 7 2 16 -1 19 -3 4 -6 -2 -5 -13z"/>
<path d="M3491 2644 c0 -11 3 -14 6 -6 3 7 2 16 -1 19 -3 4 -6 -2 -5 -13z"/>
<path d="M3476 2605 c-9 -26 -7 -32 5 -12 6 10 9 21 6 23 -2 3 -7 -2 -11 -11z"/>
<path d="M3442 2525 c-12 -25 -20 -45 -17 -45 7 0 47 81 43 86 -3 2 -14 -17
-26 -41z"/>
<path d="M3379 2423 c-13 -16 -12 -17 4 -4 9 7 17 15 17 17 0 8 -8 3 -21 -13z"/>
<path d="M2330 2358 c41 -45 50 -53 50 -45 0 2 -21 23 -47 47 l-48 45 45 -47z"/>
</g>
</svg>
